<?xml version="1.0" standalone="no"?>
<!-- Generator: Adobe Fireworks 10, Export SVG Extension by Aaron Beall (http://fireworks.abeall.com) . Version: 0.6.1  -->
<!DOCTYPE svg PUBLIC "-//W3C//DTD SVG 1.1//EN" "http://www.w3.org/Graphics/SVG/1.1/DTD/svg11.dtd">
<svg id="Untitled-Page%201" viewBox="0 0 67 67" style="background-color:#ffffff" version="1.1"
	xmlns="http://www.w3.org/2000/svg" xmlns:xlink="http://www.w3.org/1999/xlink" xml:space="preserve"
	x="0px" y="0px" width="67px" height="67px"
>
	<g id="Layer%201">
		<path id="avatar" d="M 47.1338 17.9309 C 46.9999 17.0504 46.8102 16.2808 46.5758 15.6074 C 48.4775 8.2875 42.8378 6.5858 39.188 5.6587 C 38.66 -4.995 16.7328 1.0112 18.5338 19.0905 C 18.1461 20.045 17.8987 21.476 17.8987 23.0769 C 17.8987 25.9517 18.6928 28.2812 19.6724 28.2812 C 19.8986 28.2812 20.1152 28.1582 20.3141 27.9315 C 21.3356 31.9131 23.448 35.2548 26.1948 37.373 L 26.1757 38.6897 C 26.1757 39.3492 26.1888 39.9989 26.2157 40.6388 L 25.2888 39.8462 L 24.037 42.0517 C 23.0162 42.0645 22.1407 42.6096 21.4538 44.1301 C 20.2986 46.6879 2.519 49.1185 2.519 52.2903 C 2.519 56.1651 -1.3437 62.8755 0.8165 67 L 65.5819 67 C 67.7484 63.3839 64.8178 57.4314 64.8178 53.916 C 64.8178 50.5319 45.824 46.2908 44.522 43.6226 C 43.7953 42.1333 42.9136 41.6859 41.9015 41.7825 L 40.3647 39.8462 L 39.1277 40.9309 C 39.1632 40.1967 39.1823 39.45 39.1823 38.6897 L 39.1764 37.9731 C 42.4149 35.8661 44.903 32.1251 45.9855 27.592 C 46.2456 28.0311 46.5465 28.2812 46.8682 28.2812 C 47.8475 28.2812 48.6418 25.9517 48.6418 23.0769 C 48.6418 20.4673 47.9875 18.3065 47.1338 17.9309 L 47.1338 17.9309 Z" fill="#000000"/>
	</g>
</svg>