<svg xmlns="http://www.w3.org/2000/svg" xmlns:xlink="http://www.w3.org/1999/xlink" viewBox="0 0 170 30" style="background-color:#ffffff" version="1.1" xml:space="preserve" x="0px" y="0px" width="170px" height="30px"><g><path d="M 10.8 0 C 14 0 16 1.5 17.3 2.8 L 15.7 4.7 C 14.5 3.5 13 2.5 10.8 2.5 C 6.1 2.5 3 6 3 11.8 C 3 17.7 5.7 21.2 10.8 21.2 C 12.5 21.2 14.1 20.7 15 19.8 L 15 13.8 L 10.1 13.8 L 10.1 11.5 L 17.7 11.5 L 17.7 21.2 C 16.2 22.7 13.6 23.8 10.4 23.8 C 4.4 23.8 0 19.3 0 11.8 C 0 4.5 4.5 0 10.8 0 L 10.8 0 L 10.8 0 Z" fill="#333333"/><path d="M 29.5 6 C 33.7 6 37.4 9.3 37.4 15 C 37.4 20.7 33.7 23.8 29.5 23.8 C 25.2 23.8 21.5 20.5 21.5 15 C 21.5 9.2 25.2 6 29.5 6 L 29.5 6 L 29.5 6 ZM 29.5 21.3 C 32.5 21.3 34.3 18.7 34.3 14.8 C 34.3 10.8 32.3 8.3 29.5 8.3 C 26.6 8.3 24.6 11 24.6 14.8 C 24.6 18.8 26.6 21.3 29.5 21.3 L 29.5 21.3 L 29.5 21.3 Z" fill="#333333"/><path d="M 48.6 6 C 52.9 6 56.6 9.3 56.6 15 C 56.6 20.7 52.9 23.8 48.6 23.8 C 44.4 23.8 40.7 20.5 40.7 15 C 40.7 9.2 44.4 6 48.6 6 L 48.6 6 L 48.6 6 ZM 48.6 21.3 C 51.7 21.3 53.5 18.7 53.5 14.8 C 53.5 10.8 51.5 8.3 48.6 8.3 C 45.8 8.3 43.8 11 43.8 14.8 C 43.8 18.8 45.8 21.3 48.6 21.3 L 48.6 21.3 L 48.6 21.3 Z" fill="#333333"/><path d="M 67.5 6 C 71.9 6 74.4 9.2 74.4 14 C 74.4 14.7 74.4 15.2 74.2 15.5 L 62.6 15.5 C 62.8 19.2 65 21.5 68.3 21.5 C 70 21.5 71.4 21 72.5 20.2 L 73.6 22 C 72 23 70.2 23.7 67.8 23.7 C 63.3 23.7 59.6 20.3 59.6 14.8 C 59.6 9.3 63.6 6 67.5 6 L 67.5 6 L 67.5 6 ZM 71.9 13.7 C 71.9 10.2 70.4 8.3 67.7 8.3 C 65.3 8.3 63.1 10.3 62.8 13.7 L 71.9 13.7 L 71.9 13.7 L 71.9 13.7 Z" fill="#333333"/><path d="M 78.9 28.3 C 81 28.3 82.1 26.8 82.8 24.7 L 83.1 23.3 L 76.4 6.3 L 79.4 6.3 L 83 15.7 C 83.5 17.2 84.2 18.8 84.7 20.5 L 84.8 20.5 C 85.3 19 85.8 17.2 86.3 15.7 L 89.2 6.3 L 92.1 6.3 L 85.7 24.7 C 84.5 28 82.6 30.5 79.3 30.5 C 78.4 30.5 77.8 30.3 77.3 30.2 L 77.8 27.8 C 77.9 28.2 78.6 28.3 78.9 28.3 L 78.9 28.3 L 78.9 28.3 Z" fill="#333333"/><path d="M 98.3 24.8 L 98.3 30.5 L 95.4 30.5 L 95.4 6.3 L 97.8 6.3 L 98 8.3 L 98.1 8.3 C 99.6 7 101.7 6 103.7 6 C 108.1 6 110.4 9.3 110.4 14.7 C 110.4 20.5 106.9 23.8 103 23.8 C 101.5 23.8 99.8 23.2 98.3 21.8 L 98.3 24.8 L 98.3 24.8 L 98.3 24.8 ZM 102.5 21.3 C 105.4 21.3 107.4 18.8 107.4 14.5 C 107.4 10.8 106 8.3 102.8 8.3 C 101.3 8.3 100 9.2 98.3 10.7 L 98.3 19.7 C 99.8 20.8 101.3 21.3 102.5 21.3 L 102.5 21.3 L 102.5 21.3 Z" fill="#333333"/><path d="M 115 6.3 L 117.3 6.3 L 117.5 9.3 L 117.7 9.3 C 118.8 7.2 120.5 5.8 122.5 5.8 C 123.2 5.8 123.9 6 124.4 6.2 L 123.9 8.7 C 123.4 8.5 122.9 8.3 122.2 8.3 C 120.7 8.3 119 9.3 117.8 12.3 L 117.8 23.3 L 115 23.3 L 115 6.3 L 115 6.3 L 115 6.3 Z" fill="#333333"/><path d="M 133.3 6 C 137.7 6 140.2 9.2 140.2 14 C 140.2 14.7 140.2 15.2 140 15.5 L 128.4 15.5 C 128.6 19.2 130.8 21.5 134.1 21.5 C 135.8 21.5 137.2 21 138.4 20.2 L 139.4 22 C 137.9 23 136 23.7 133.6 23.7 C 129.1 23.7 125.4 20.3 125.4 14.8 C 125.4 9.3 129.4 6 133.3 6 L 133.3 6 L 133.3 6 ZM 137.7 13.7 C 137.7 10.2 136.2 8.3 133.5 8.3 C 131.1 8.3 128.9 10.3 128.6 13.7 L 137.7 13.7 L 137.7 13.7 L 137.7 13.7 Z" fill="#333333"/><path d="M 143.9 19.5 C 145.4 20.7 146.9 21.5 149 21.5 C 151.1 21.5 152.3 20.3 152.3 18.8 C 152.3 17.2 150.3 16.3 148.5 15.7 C 146.1 14.8 143.4 13.7 143.4 10.8 C 143.4 8.2 145.6 6 149.3 6 C 151.5 6 153.3 6.8 154.7 8 L 153.2 9.7 C 152 8.8 150.8 8.2 149.3 8.2 C 147.1 8.2 146.1 9.3 146.1 10.7 C 146.1 12.2 148 12.8 150 13.7 C 152.5 14.5 155.2 15.7 155.2 18.8 C 155.2 21.7 153 23.8 149 23.8 C 146.6 23.8 144.2 22.8 142.6 21.5 L 143.9 19.5 L 143.9 19.5 L 143.9 19.5 Z" fill="#333333"/><path d="M 158.7 19.5 C 160.2 20.7 161.8 21.5 163.8 21.5 C 166 21.5 167.1 20.3 167.1 18.8 C 167.1 17.2 165.1 16.3 163.3 15.7 C 160.9 14.8 158.2 13.7 158.2 10.8 C 158.2 8.2 160.4 6 164.1 6 C 166.3 6 168.1 6.8 169.5 8 L 168.1 9.8 C 167 9 165.8 8.3 164.3 8.3 C 162.1 8.3 161.1 9.5 161.1 10.8 C 161.1 12.3 162.9 13 165 13.8 C 167.5 14.7 170.2 15.8 170.2 19 C 170.2 21.8 168 24 163.9 24 C 161.6 24 159.2 23 157.5 21.7 L 158.7 19.5 L 158.7 19.5 L 158.7 19.5 Z" fill="#333333"/></g></svg>